# xmcd
#
# Track frame offsets: 
#        150
#        10670
#        21390
#        31920
#        66752
#        82982
#        117657
#        149835
#        170315
#        190337
#        204990
#        215425
#        241935
#        254545
#        258050
#        270872
#
# Disc length: 3867 seconds
#
# Revision: 0
# Processed by: cddbd v1.5.2PL0 Copyright (c) Steve Scherf et al.
# Submitted via: ExactAudioCopy v0.95b3
#
DISCID=dc0f1910
DTITLE=Genesis  - Genesis In The Beginning - Vol.2 - Definitive Editio
DTITLE=n Digital Remastered and Bonus Tracks  FLAC
DYEAR=1900
DGENRE=
TTITLE0=Cuckoo Cocoon-Demo Take 1
TTITLE1=Cuckoo Cocoon-Demo Take 2
TTITLE2=Cuckoo Cocoon-Demo Take 3
TTITLE3=Master Of Time-A.Phillips'version Of Unreleased Genesis Song
TTITLE4=Child Song,A.Phillips'version Of Unreleased Genesis Song
TTITLE5=Reaper-A.Phillips,Featured On Back To The Pavillion
TTITLE6=The Lamia-Studio Demo
TTITLE7=The Lamb Lies Down On Broadway-Take 1
TTITLE8=The Lamb Lies Down On Broadway-Take 2
TTITLE9=Anyway-Studio Demo
TTITLE10=Cuckoo Cocoon-Demo Take 4
TTITLE11=Back In N.Y.C-Studio Take
TTITLE12=The Grand Parade Of Lifeless Packaging-Take 1 2.45
TTITLE13=The Grand Parade Of Lifeless Packaging-Take 2-Incomplete
TTITLE14=Happy The Man-Demo Version
TTITLE15=Silver Song-Studio Demo,Vox Phil
EXTD=
EXTT0=
EXTT1=
EXTT2=
EXTT3=
EXTT4=
EXTT5=
EXTT6=
EXTT7=
EXTT8=
EXTT9=
EXTT10=
EXTT11=
EXTT12=
EXTT13=
EXTT14=
EXTT15=
PLAYORDER=
